HIERARCHY
ROOT RootJoint
{
    OFFSET   0.000000   0.000000   0.000000
    CHANNELS 6 Xposition Yposition Zposition Xrotation Yrotation Zrotation
    JOINT pelvis_lowerback
    {
        OFFSET   0.000000   0.093605   0.000000
        CHANNELS 3 Xrotation Yrotation Zrotation
        JOINT lowerback_torso
        {
            OFFSET   0.000000   0.100000   0.000000
            CHANNELS 3 Xrotation Yrotation Zrotation
            JOINT torso_head
            {
                OFFSET   0.000000   0.282350   0.000000
                CHANNELS 3 Xrotation Yrotation Zrotation
                End Site
                {
                    OFFSET   0.000000   0.192650   0.000000
                }
            }
            JOINT rTorso_Clavicle
            {
                OFFSET  -0.001000   0.157500   0.000000
                CHANNELS 3 Xrotation Yrotation Zrotation
                JOINT rShoulder
                {
                    OFFSET  -0.117647   0.000000   0.000000
                    CHANNELS 3 Xrotation Yrotation Zrotation
                    JOINT rElbow
                    {
                        OFFSET  -0.245000   0.000000   0.000000
                        CHANNELS 3 Xrotation Yrotation Zrotation
                        JOINT rWrist
                        {
                            OFFSET  -0.240000   0.000000   0.000000
                            CHANNELS 3 Xrotation Yrotation Zrotation
                            End Site
                            {
                                OFFSET  -0.116353  -0.002500   0.000000
                            }
                        }
                    }
                }
            }
            JOINT lTorso_Clavicle
            {
                OFFSET   0.001000   0.157500   0.000000
                CHANNELS 3 Xrotation Yrotation Zrotation
                JOINT lShoulder
                {
                    OFFSET   0.117647   0.000000   0.000000
                    CHANNELS 3 Xrotation Yrotation Zrotation
                    JOINT lElbow
                    {
                        OFFSET   0.245000   0.000000   0.000000
                        CHANNELS 3 Xrotation Yrotation Zrotation
                        JOINT lWrist
                        {
                            OFFSET   0.240000   0.000000   0.000000
                            CHANNELS 3 Xrotation Yrotation Zrotation
                            End Site
                            {
                                OFFSET   0.116353  -0.002500   0.000000
                            }
                        }
                    }
                }
            }
        }
    }
    JOINT rHip
    {
        OFFSET  -0.100000  -0.051395   0.000000
        CHANNELS 3 Xrotation Yrotation Zrotation
        JOINT rKnee
        {
            OFFSET   0.000000  -0.410000   0.000000
            CHANNELS 3 Xrotation Yrotation Zrotation
            JOINT rAnkle
            {
                OFFSET   0.000000  -0.390000   0.000000
                CHANNELS 3 Xrotation Yrotation Zrotation
                JOINT rToeJoint
                {
                    OFFSET   0.000000  -0.050000   0.130000
                    CHANNELS 3 Xrotation Yrotation Zrotation
                    End Site
                    {
                        OFFSET  -0.010000   0.002000   0.060000
                    }
                }
            }
        }
    }
    JOINT lHip
    {
        OFFSET   0.100000  -0.051395   0.000000
        CHANNELS 3 Xrotation Yrotation Zrotation
        JOINT lKnee
        {
            OFFSET   0.000000  -0.410000   0.000000
            CHANNELS 3 Xrotation Yrotation Zrotation
            JOINT lAnkle
            {
                OFFSET   0.000000  -0.390000   0.000000
                CHANNELS 3 Xrotation Yrotation Zrotation
                JOINT lToeJoint
                {
                    OFFSET   0.000000  -0.050000   0.130000
                    CHANNELS 3 Xrotation Yrotation Zrotation
                    End Site
                    {
                        OFFSET   0.010000   0.002000   0.060000
                    }
                }
            }
        }
    }
}
MOTION
Frames: 8
Frame Time:   0.008333
 -2.306570   0.917474   4.265770 175.754340  54.504408 -172.589599   7.434227   0.974176  -2.887313  -1.489749  -2.378655  -1.867526   0.000337   5.303761  -5.166600   0.244223 -11.608089  -0.699223 -14.935736 -16.190805  34.050081   0.001850  50.254682  -0.001844  -7.398582   0.619020 -12.500460   1.807188   1.962653  -2.865949   7.068043 -13.142945 -47.572024 179.718723 -87.778669 179.720884  -2.843687  -4.382187   4.126350  -5.100044  -9.092502 -13.482256  24.035514  -0.000064  -0.000150  -6.474303  -9.143013   4.447764 -21.561804   0.000443  -0.000144 -14.828496  -9.835218   0.569500  30.574293  -0.003290  -0.008386  -6.322919  -5.756756  -1.534007  -7.598554   0.001086   0.052434
 -2.306913   0.917733   4.266932 175.685445  53.312988 -172.423459   7.512886   0.988038  -2.899903  -1.526785  -2.349835  -1.939869  -0.088354   5.356786  -5.241641   0.300090 -11.584849  -0.617170 -14.691894 -15.944612  34.294112   0.005165  50.481714  -0.005252  -7.386780   0.665515 -12.790895   1.835263   2.217315  -2.889622   7.014435 -12.647809 -47.605096 179.543929 -88.206921 179.546958  -2.824394  -4.580793   4.347849  -5.069298  -9.704101 -13.463433  23.947680  -0.000101  -0.000597  -6.572964  -9.924657   4.306800 -21.436223   0.000542  -0.000220 -15.243536  -8.524275   0.601418  30.672330  -0.001941  -0.004715  -6.651188  -4.354445  -1.277234  -7.241207   0.000495   0.053782
 -2.307228   0.917619   4.268017 175.622881  52.091208 -172.212255   7.579363   0.992659  -2.971782  -1.564021  -2.328354  -2.025272  -0.171555   5.404368  -5.312777   0.361766 -11.569993  -0.531379 -14.450399 -15.714824  34.542955   0.007718  50.703436  -0.007886  -7.363679   0.755063 -13.005491   1.858157   2.470618  -2.883680   6.964412 -12.165070 -47.620216 179.299520 -88.623032 179.303145  -2.812557  -4.686696   4.654248  -5.002140 -10.305188 -13.486740  23.794899  -0.000191  -0.001364  -6.477156 -10.689645   4.120493 -22.964044  -0.002715   0.000022 -15.680315  -7.233683   0.587608  30.788672  -0.000740  -0.001408  -6.966683  -3.034679  -1.030035  -6.949454   0.000161   0.052495
 -2.307563   0.917708   4.268919 175.587978  50.856398 -172.100184   7.655558   1.004900  -2.967114  -1.596186  -2.301988  -2.087623  -0.250344   5.448974  -5.383825   0.417951 -11.551686  -0.424872 -14.225683 -15.499893  34.779307   0.009512  50.904858  -0.009677  -7.341489   0.838656 -13.204255   1.887076   2.707467  -2.918061   6.922904 -11.711561 -47.645499 178.908962 -89.024443 178.913155  -2.803394  -4.726651   4.969503  -4.931054 -10.871173 -13.457446  23.729473  -0.000222  -0.001492  -6.698508 -11.408464   3.988748 -22.462256  -0.001590   0.000301 -16.085422  -6.034233   0.633577  30.886205   0.000078   0.000804  -7.263947  -1.802817  -0.791812  -6.675012  -0.000031   0.050567
 -2.307902   0.917869   4.269638 175.565639  49.643975 -172.008932   7.729680   1.032791  -2.966946  -1.621218  -2.263475  -2.135864  -0.323447   5.491141  -5.447716   0.471573 -11.529076  -0.312112 -14.012281 -15.297360  35.012356   0.010735  51.092718  -0.010874  -7.322664   0.910908 -13.369644   1.920363   2.934816  -2.950900   6.890072 -11.285477 -47.671143 178.134645 -89.399996 178.139224  -2.796469  -4.747410   5.270611  -4.864124 -11.428190 -13.430105  23.669783  -0.000246  -0.001550  -6.828716 -12.101346   3.866893 -22.144755  -0.000867   0.000431 -16.464062  -4.911486   0.676245  30.973675   0.000643   0.002303  -7.545034  -0.653737  -0.563388  -6.424416  -0.000130   0.047898
 -2.308249   0.918041   4.270172 175.549022  48.470705 -171.925707   7.799993   1.077682  -2.973401  -1.642588  -2.210462  -2.178744  -0.391378   5.531050  -5.507252   0.520921 -11.500751  -0.200524 -13.812726 -15.104073  35.236814   0.011487  51.269018  -0.011601  -7.305269   0.978894 -13.506438   1.955846   3.154719  -2.977722   6.864149 -10.883437 -47.693434 175.436800 -89.750177 175.441587  -2.790414  -4.762956   5.561063  -4.802555 -11.972652 -13.411373  23.614117  -0.000261  -0.001556  -6.914830 -12.773698   3.750429 -21.928718  -0.000393   0.000453 -16.816437  -3.861430   0.713644  31.056214   0.001035   0.003331  -7.810573   0.417931  -0.344810  -6.196251  -0.000181   0.044732
 -2.308607   0.918193   4.270527 175.534275  47.342404 -171.847846   7.865581   1.137117  -2.983886  -1.662354  -2.144446  -2.218534  -0.454786   5.568773  -5.563126   0.565065 -11.466657  -0.094146 -13.628142 -14.918474  35.449699   0.011862  51.435079  -0.011959  -7.287826   1.047990 -13.622217   1.992356   3.367050  -2.999231   6.843694 -10.503964 -47.712313  14.167428 -89.919286  14.172283  -2.784864  -4.776222   5.844110  -4.745443 -12.499931 -13.400762  23.561481  -0.000272  -0.001529  -6.977891 -13.421893   3.638999 -21.775641  -0.000090   0.000429 -17.143741  -2.880870   0.749883  31.134957   0.001298   0.004012  -8.061169   1.417392  -0.135942  -5.987978  -0.000212   0.041310
 -2.308863   0.918294   4.270850 175.397067  46.067517 -171.746735   7.771958   1.147605  -2.944970  -1.669801  -2.156128  -2.233027  -0.467428   5.627655  -5.628554   0.666381 -11.447406  -0.076761 -13.188202 -14.662263  35.806709   0.015162  51.739754  -0.015523  -7.278322   1.103527 -13.838969   2.036710   3.570090  -2.984184   6.776365 -10.088768 -47.812807   2.101520 -89.391073   2.107273  -2.796165  -4.927000   6.119363  -4.727018 -13.155778 -13.286498  23.440146  -0.000340  -0.001912  -7.020326 -14.263907   3.514841 -21.614356   0.000235   0.000191 -17.687470  -1.335708   0.903408  31.450314   0.003711   0.010415  -8.330755   2.884331   0.206723  -5.759841  -0.000398   0.041417
